<svg xmlns="http://www.w3.org/2000/svg" xmlns:xlink="http://www.w3.org/1999/xlink" width="500" zoomAndPan="magnify" viewBox="0 0 375 374.999991" height="500" preserveAspectRatio="xMidYMid meet" version="1.0"><defs><g/><clipPath id="690b96cf1e"><path d="M 126 37.5 L 282 37.5 L 282 230 L 126 230 Z M 126 37.5 " clip-rule="nonzero"/></clipPath></defs><path fill="#ffffff" d="M 200.320312 114.414062 C 204.015625 108.070312 204.015625 100.5 200.320312 94.15625 C 196.417969 88.433594 189.648438 84.753906 182.464844 84.753906 C 135.6875 85.160156 93.207031 106.226562 94.238281 145.921875 C 95.050781 166.988281 106.34375 186.011719 122.140625 199.300781 C 103.882812 168.613281 116.597656 146.945312 139.789062 134.871094 C 161.128906 123.820312 192.316406 128.933594 200.320312 114.414062 Z M 200.320312 114.414062 " fill-opacity="1" fill-rule="evenodd"/><g clip-path="url(#690b96cf1e)"><path fill="#ffffff" d="M 197.449219 164.535156 C 174.261719 168.613281 149.433594 168.824219 141.222656 190.511719 C 138.351562 207.695312 145.738281 219.765625 163.386719 227.125 C 170.359375 228.972656 177.949219 229.996094 185.75 229.996094 C 238.898438 229.996094 281.785156 186.824219 281.785156 133.847656 C 281.785156 80.660156 238.898438 37.5 185.75 37.5 C 163.386719 37.5 142.660156 45.265625 126.238281 57.75 C 161.535156 45.476562 216.53125 45.882812 237.867188 81.886719 C 246.691406 96.820312 248.746094 115.84375 241.5625 133.027344 C 234.171875 149.804688 218.375 161.253906 197.449219 164.535156 Z M 197.449219 164.535156 " fill-opacity="1" fill-rule="evenodd"/></g><g fill="#ffffff" fill-opacity="1"><g transform="translate(41.543207, 318.064986)"><g><path d="M 5.890625 0 L 5.890625 -56.953125 L 23.421875 -56.953125 C 28.085938 -56.953125 32.082031 -56.226562 35.40625 -54.78125 C 38.738281 -53.34375 41.289062 -51.28125 43.0625 -48.59375 C 44.832031 -45.914062 45.71875 -42.703125 45.71875 -38.953125 C 45.71875 -35.234375 44.832031 -32.019531 43.0625 -29.3125 C 41.289062 -26.601562 38.738281 -24.519531 35.40625 -23.0625 C 32.082031 -21.613281 28.085938 -20.890625 23.421875 -20.890625 L 12.5625 -20.890625 L 12.5625 0 Z M 12.5625 -26.8125 L 22.859375 -26.8125 C 27.972656 -26.8125 31.921875 -27.882812 34.703125 -30.03125 C 37.492188 -32.1875 38.890625 -35.160156 38.890625 -38.953125 C 38.890625 -42.753906 37.492188 -45.71875 34.703125 -47.84375 C 31.921875 -49.96875 27.972656 -51.03125 22.859375 -51.03125 L 12.5625 -51.03125 Z M 12.5625 -26.8125 "/></g></g></g><g fill="#ffffff" fill-opacity="1"><g transform="translate(90.485964, 318.064986)"><g><path d="M 36.53125 0 L 31.171875 0 L 30.75 -5.015625 C 29.363281 -3.210938 27.59375 -1.796875 25.4375 -0.765625 C 23.289062 0.253906 20.882812 0.765625 18.21875 0.765625 C 15.488281 0.765625 13.046875 0.226562 10.890625 -0.84375 C 8.742188 -1.925781 7.054688 -3.40625 5.828125 -5.28125 C 4.597656 -7.15625 3.984375 -9.28125 3.984375 -11.65625 C 3.984375 -14.164062 4.644531 -16.375 5.96875 -18.28125 C 7.300781 -20.195312 9.113281 -21.695312 11.40625 -22.78125 C 13.695312 -23.875 16.300781 -24.421875 19.21875 -24.421875 C 21.113281 -24.421875 23.046875 -24.1875 25.015625 -23.71875 C 26.992188 -23.25 28.753906 -22.609375 30.296875 -21.796875 L 30.296875 -23.390625 C 30.296875 -25.410156 29.789062 -27.132812 28.78125 -28.5625 C 27.769531 -30 26.414062 -31.101562 24.71875 -31.875 C 23.019531 -32.644531 21.144531 -33.03125 19.09375 -33.03125 C 17.320312 -33.03125 15.507812 -32.707031 13.65625 -32.0625 C 11.8125 -31.414062 10.046875 -30.425781 8.359375 -29.09375 L 6.296875 -34.4375 C 8.503906 -35.851562 10.820312 -36.921875 13.25 -37.640625 C 15.675781 -38.367188 18.082031 -38.734375 20.46875 -38.734375 C 23.757812 -38.734375 26.597656 -38.066406 28.984375 -36.734375 C 31.378906 -35.410156 33.234375 -33.523438 34.546875 -31.078125 C 35.867188 -28.640625 36.53125 -25.75 36.53125 -22.40625 Z M 19.328125 -4.9375 C 21.273438 -4.9375 23.054688 -5.335938 24.671875 -6.140625 C 26.296875 -6.953125 27.613281 -8.125 28.625 -9.65625 C 29.644531 -11.195312 30.203125 -13.015625 30.296875 -15.109375 L 30.296875 -15.765625 C 28.910156 -16.847656 27.347656 -17.6875 25.609375 -18.28125 C 23.878906 -18.875 22.113281 -19.171875 20.3125 -19.171875 C 17.5 -19.171875 15.148438 -18.488281 13.265625 -17.125 C 11.378906 -15.757812 10.4375 -14.023438 10.4375 -11.921875 C 10.4375 -10.609375 10.820312 -9.421875 11.59375 -8.359375 C 12.375 -7.296875 13.429688 -6.457031 14.765625 -5.84375 C 16.109375 -5.238281 17.628906 -4.9375 19.328125 -4.9375 Z M 19.328125 -4.9375 "/></g></g></g><g fill="#ffffff" fill-opacity="1"><g transform="translate(132.138567, 318.064986)"><g><path d="M 66 0 L 59.765625 0 L 59.765625 -20.234375 C 59.765625 -24.316406 58.867188 -27.488281 57.078125 -29.75 C 55.296875 -32.019531 52.785156 -33.15625 49.546875 -33.15625 C 46.285156 -33.15625 43.722656 -32.007812 41.859375 -29.71875 C 40.003906 -27.425781 39.078125 -24.265625 39.078125 -20.234375 L 39.078125 0 L 32.84375 0 L 32.84375 -20.234375 C 32.84375 -24.316406 31.941406 -27.488281 30.140625 -29.75 C 28.347656 -32.019531 25.832031 -33.15625 22.59375 -33.15625 C 19.320312 -33.15625 16.753906 -32.007812 14.890625 -29.71875 C 13.035156 -27.425781 12.109375 -24.265625 12.109375 -20.234375 L 12.109375 0 L 5.890625 0 L 5.890625 -37.96875 L 10.96875 -37.96875 L 11.234375 -31.171875 C 12.503906 -33.648438 14.234375 -35.53125 16.421875 -36.8125 C 18.609375 -38.09375 21.195312 -38.734375 24.1875 -38.734375 C 27.375 -38.734375 30.097656 -38.015625 32.359375 -36.578125 C 34.628906 -35.148438 36.320312 -33.109375 37.4375 -30.453125 C 38.675781 -33.160156 40.441406 -35.21875 42.734375 -36.625 C 45.023438 -38.03125 47.765625 -38.734375 50.953125 -38.734375 C 55.691406 -38.734375 59.382812 -37.234375 62.03125 -34.234375 C 64.675781 -31.234375 66 -27.050781 66 -21.6875 Z M 66 0 "/></g></g></g><g fill="#ffffff" fill-opacity="1"><g transform="translate(203.255537, 318.064986)"><g><path d="M 22.75 0.765625 C 18.976562 0.765625 15.582031 -0.09375 12.5625 -1.8125 C 9.550781 -3.539062 7.175781 -5.890625 5.4375 -8.859375 C 3.707031 -11.835938 2.84375 -15.210938 2.84375 -18.984375 C 2.84375 -22.734375 3.707031 -26.09375 5.4375 -29.0625 C 7.175781 -32.039062 9.550781 -34.394531 12.5625 -36.125 C 15.582031 -37.863281 18.976562 -38.734375 22.75 -38.734375 C 26.519531 -38.734375 29.894531 -37.863281 32.875 -36.125 C 35.863281 -34.394531 38.21875 -32.039062 39.9375 -29.0625 C 41.664062 -26.09375 42.53125 -22.734375 42.53125 -18.984375 C 42.53125 -15.210938 41.664062 -11.835938 39.9375 -8.859375 C 38.21875 -5.890625 35.863281 -3.539062 32.875 -1.8125 C 29.894531 -0.09375 26.519531 0.765625 22.75 0.765625 Z M 22.703125 -4.859375 C 25.265625 -4.859375 27.554688 -5.476562 29.578125 -6.71875 C 31.609375 -7.957031 33.210938 -9.640625 34.390625 -11.765625 C 35.566406 -13.890625 36.15625 -16.296875 36.15625 -18.984375 C 36.15625 -21.671875 35.566406 -24.078125 34.390625 -26.203125 C 33.210938 -28.328125 31.609375 -30.007812 29.578125 -31.25 C 27.554688 -32.488281 25.265625 -33.109375 22.703125 -33.109375 C 20.148438 -33.109375 17.851562 -32.488281 15.8125 -31.25 C 13.78125 -30.007812 12.175781 -28.328125 11 -26.203125 C 9.820312 -24.078125 9.234375 -21.671875 9.234375 -18.984375 C 9.234375 -16.296875 9.820312 -13.890625 11 -11.765625 C 12.175781 -9.640625 13.78125 -7.957031 15.8125 -6.71875 C 17.851562 -5.476562 20.148438 -4.859375 22.703125 -4.859375 Z M 22.703125 -4.859375 "/></g></g></g><g fill="#ffffff" fill-opacity="1"><g transform="translate(248.629155, 318.064986)"><g><path d="M 9.875 -49.96875 C 8.8125 -49.96875 7.914062 -50.332031 7.1875 -51.0625 C 6.46875 -51.800781 6.109375 -52.703125 6.109375 -53.765625 C 6.109375 -54.828125 6.46875 -55.722656 7.1875 -56.453125 C 7.914062 -57.191406 8.8125 -57.5625 9.875 -57.5625 C 10.9375 -57.5625 11.832031 -57.191406 12.5625 -56.453125 C 13.300781 -55.722656 13.671875 -54.828125 13.671875 -53.765625 C 13.671875 -52.703125 13.300781 -51.800781 12.5625 -51.0625 C 11.832031 -50.332031 10.9375 -49.96875 9.875 -49.96875 Z M -4.296875 19.25 L -4.296875 14.28125 C -3.890625 14.351562 -3.5 14.398438 -3.125 14.421875 C -2.757812 14.453125 -2.398438 14.46875 -2.046875 14.46875 C 0.585938 14.46875 2.710938 13.53125 4.328125 11.65625 C 5.953125 9.78125 6.765625 7.257812 6.765625 4.09375 L 6.765625 -37.96875 L 13.03125 -37.96875 L 13.03125 4.328125 C 13.03125 9.234375 11.894531 13.03125 9.625 15.71875 C 7.363281 18.40625 4.191406 19.75 0.109375 19.75 C -0.566406 19.75 -1.269531 19.703125 -2 19.609375 C -2.738281 19.523438 -3.503906 19.40625 -4.296875 19.25 Z M -4.296875 19.25 "/></g></g></g><g fill="#ffffff" fill-opacity="1"><g transform="translate(267.500031, 318.064986)"><g><path d="M 36.53125 0 L 31.171875 0 L 30.75 -5.015625 C 29.363281 -3.210938 27.59375 -1.796875 25.4375 -0.765625 C 23.289062 0.253906 20.882812 0.765625 18.21875 0.765625 C 15.488281 0.765625 13.046875 0.226562 10.890625 -0.84375 C 8.742188 -1.925781 7.054688 -3.40625 5.828125 -5.28125 C 4.597656 -7.15625 3.984375 -9.28125 3.984375 -11.65625 C 3.984375 -14.164062 4.644531 -16.375 5.96875 -18.28125 C 7.300781 -20.195312 9.113281 -21.695312 11.40625 -22.78125 C 13.695312 -23.875 16.300781 -24.421875 19.21875 -24.421875 C 21.113281 -24.421875 23.046875 -24.1875 25.015625 -23.71875 C 26.992188 -23.25 28.753906 -22.609375 30.296875 -21.796875 L 30.296875 -23.390625 C 30.296875 -25.410156 29.789062 -27.132812 28.78125 -28.5625 C 27.769531 -30 26.414062 -31.101562 24.71875 -31.875 C 23.019531 -32.644531 21.144531 -33.03125 19.09375 -33.03125 C 17.320312 -33.03125 15.507812 -32.707031 13.65625 -32.0625 C 11.8125 -31.414062 10.046875 -30.425781 8.359375 -29.09375 L 6.296875 -34.4375 C 8.503906 -35.851562 10.820312 -36.921875 13.25 -37.640625 C 15.675781 -38.367188 18.082031 -38.734375 20.46875 -38.734375 C 23.757812 -38.734375 26.597656 -38.066406 28.984375 -36.734375 C 31.378906 -35.410156 33.234375 -33.523438 34.546875 -31.078125 C 35.867188 -28.640625 36.53125 -25.75 36.53125 -22.40625 Z M 19.328125 -4.9375 C 21.273438 -4.9375 23.054688 -5.335938 24.671875 -6.140625 C 26.296875 -6.953125 27.613281 -8.125 28.625 -9.65625 C 29.644531 -11.195312 30.203125 -13.015625 30.296875 -15.109375 L 30.296875 -15.765625 C 28.910156 -16.847656 27.347656 -17.6875 25.609375 -18.28125 C 23.878906 -18.875 22.113281 -19.171875 20.3125 -19.171875 C 17.5 -19.171875 15.148438 -18.488281 13.265625 -17.125 C 11.378906 -15.757812 10.4375 -14.023438 10.4375 -11.921875 C 10.4375 -10.609375 10.820312 -9.421875 11.59375 -8.359375 C 12.375 -7.296875 13.429688 -6.457031 14.765625 -5.84375 C 16.109375 -5.238281 17.628906 -4.9375 19.328125 -4.9375 Z M 19.328125 -4.9375 "/></g></g></g></svg>